<mxfile host="Electron" modified="2024-01-15T14:48:46.426Z" agent="Mozilla/5.0 (Windows NT 10.0; Win64; x64) AppleWebKit/537.36 (KHTML, like Gecko) draw.io/22.1.2 Chrome/114.0.5735.289 Electron/25.9.4 Safari/537.36" etag="HKzXTOj5LYGVGWpNUEel" version="22.1.2" type="device">
  <diagram name="第 1 页" id="LjtXCs0cirodQ7foeRpn">
    <mxGraphModel dx="2074" dy="1196" grid="1" gridSize="10" guides="1" tooltips="1" connect="1" arrows="1" fold="1" page="1" pageScale="1" pageWidth="827" pageHeight="1169" math="0" shadow="0">
      <root>
        <mxCell id="0" />
        <mxCell id="1" parent="0" />
        <mxCell id="52K3dLHCDRgLTuiudJ5l-14" value="" style="edgeStyle=orthogonalEdgeStyle;rounded=0;orthogonalLoop=1;jettySize=auto;html=1;" edge="1" parent="1" source="52K3dLHCDRgLTuiudJ5l-1" target="52K3dLHCDRgLTuiudJ5l-13">
          <mxGeometry relative="1" as="geometry" />
        </mxCell>
        <mxCell id="52K3dLHCDRgLTuiudJ5l-1" value="开始" style="strokeWidth=2;html=1;shape=mxgraph.flowchart.start_1;whiteSpace=wrap;" vertex="1" parent="1">
          <mxGeometry x="364" y="20" width="100" height="60" as="geometry" />
        </mxCell>
        <mxCell id="52K3dLHCDRgLTuiudJ5l-16" value="" style="edgeStyle=orthogonalEdgeStyle;rounded=0;orthogonalLoop=1;jettySize=auto;html=1;" edge="1" parent="1" source="52K3dLHCDRgLTuiudJ5l-13" target="52K3dLHCDRgLTuiudJ5l-15">
          <mxGeometry relative="1" as="geometry" />
        </mxCell>
        <mxCell id="52K3dLHCDRgLTuiudJ5l-13" value="读取tif图像，转换成灰度矩阵并进行标准化" style="whiteSpace=wrap;html=1;strokeWidth=2;" vertex="1" parent="1">
          <mxGeometry x="354" y="120" width="120" height="60" as="geometry" />
        </mxCell>
        <mxCell id="52K3dLHCDRgLTuiudJ5l-19" value="" style="edgeStyle=orthogonalEdgeStyle;rounded=0;orthogonalLoop=1;jettySize=auto;html=1;" edge="1" parent="1" source="52K3dLHCDRgLTuiudJ5l-15" target="52K3dLHCDRgLTuiudJ5l-18">
          <mxGeometry relative="1" as="geometry" />
        </mxCell>
        <mxCell id="52K3dLHCDRgLTuiudJ5l-15" value="提取patches并构建输入矩阵X" style="whiteSpace=wrap;html=1;strokeWidth=2;" vertex="1" parent="1">
          <mxGeometry x="354" y="220" width="120" height="60" as="geometry" />
        </mxCell>
        <mxCell id="52K3dLHCDRgLTuiudJ5l-21" value="" style="edgeStyle=orthogonalEdgeStyle;rounded=0;orthogonalLoop=1;jettySize=auto;html=1;" edge="1" parent="1" source="52K3dLHCDRgLTuiudJ5l-18" target="52K3dLHCDRgLTuiudJ5l-20">
          <mxGeometry relative="1" as="geometry" />
        </mxCell>
        <mxCell id="52K3dLHCDRgLTuiudJ5l-18" value="对输入矩阵X进行SVD分解，计算迭代的初始A0与D0" style="whiteSpace=wrap;html=1;strokeWidth=2;" vertex="1" parent="1">
          <mxGeometry x="354" y="320" width="120" height="60" as="geometry" />
        </mxCell>
        <mxCell id="52K3dLHCDRgLTuiudJ5l-23" value="" style="edgeStyle=orthogonalEdgeStyle;rounded=0;orthogonalLoop=1;jettySize=auto;html=1;" edge="1" parent="1" source="52K3dLHCDRgLTuiudJ5l-20" target="52K3dLHCDRgLTuiudJ5l-22">
          <mxGeometry relative="1" as="geometry" />
        </mxCell>
        <mxCell id="52K3dLHCDRgLTuiudJ5l-20" value="固定A矩阵，对D矩阵采用梯度下降进行迭代" style="whiteSpace=wrap;html=1;strokeWidth=2;" vertex="1" parent="1">
          <mxGeometry x="354" y="420" width="120" height="60" as="geometry" />
        </mxCell>
        <mxCell id="52K3dLHCDRgLTuiudJ5l-25" value="" style="edgeStyle=orthogonalEdgeStyle;rounded=0;orthogonalLoop=1;jettySize=auto;html=1;" edge="1" parent="1" source="52K3dLHCDRgLTuiudJ5l-22" target="52K3dLHCDRgLTuiudJ5l-24">
          <mxGeometry relative="1" as="geometry" />
        </mxCell>
        <mxCell id="52K3dLHCDRgLTuiudJ5l-22" value="固定D矩阵，对A矩阵采用梯度下降，并采用l1-范数的软阈值收缩进行更新" style="whiteSpace=wrap;html=1;strokeWidth=2;" vertex="1" parent="1">
          <mxGeometry x="354" y="524.5" width="120" height="60" as="geometry" />
        </mxCell>
        <mxCell id="52K3dLHCDRgLTuiudJ5l-27" value="" style="edgeStyle=orthogonalEdgeStyle;rounded=0;orthogonalLoop=1;jettySize=auto;html=1;" edge="1" parent="1" source="52K3dLHCDRgLTuiudJ5l-24" target="52K3dLHCDRgLTuiudJ5l-26">
          <mxGeometry relative="1" as="geometry" />
        </mxCell>
        <mxCell id="52K3dLHCDRgLTuiudJ5l-31" value="True" style="edgeLabel;html=1;align=center;verticalAlign=middle;resizable=0;points=[];" vertex="1" connectable="0" parent="52K3dLHCDRgLTuiudJ5l-27">
          <mxGeometry x="0.0108" y="-1" relative="1" as="geometry">
            <mxPoint as="offset" />
          </mxGeometry>
        </mxCell>
        <mxCell id="52K3dLHCDRgLTuiudJ5l-34" value="" style="edgeStyle=orthogonalEdgeStyle;rounded=0;orthogonalLoop=1;jettySize=auto;html=1;" edge="1" parent="1" source="52K3dLHCDRgLTuiudJ5l-24" target="52K3dLHCDRgLTuiudJ5l-33">
          <mxGeometry relative="1" as="geometry" />
        </mxCell>
        <mxCell id="52K3dLHCDRgLTuiudJ5l-36" value="False" style="edgeLabel;html=1;align=center;verticalAlign=middle;resizable=0;points=[];" vertex="1" connectable="0" parent="52K3dLHCDRgLTuiudJ5l-34">
          <mxGeometry x="-0.1143" y="2" relative="1" as="geometry">
            <mxPoint as="offset" />
          </mxGeometry>
        </mxCell>
        <mxCell id="52K3dLHCDRgLTuiudJ5l-24" value="迭代步等于于500的整倍数？" style="rhombus;whiteSpace=wrap;html=1;strokeWidth=2;" vertex="1" parent="1">
          <mxGeometry x="341" y="620" width="146" height="80" as="geometry" />
        </mxCell>
        <mxCell id="52K3dLHCDRgLTuiudJ5l-30" style="edgeStyle=orthogonalEdgeStyle;rounded=0;orthogonalLoop=1;jettySize=auto;html=1;exitX=0.5;exitY=1;exitDx=0;exitDy=0;entryX=1;entryY=0.5;entryDx=0;entryDy=0;" edge="1" parent="1" source="52K3dLHCDRgLTuiudJ5l-26" target="52K3dLHCDRgLTuiudJ5l-33">
          <mxGeometry relative="1" as="geometry">
            <mxPoint x="474" y="820" as="targetPoint" />
          </mxGeometry>
        </mxCell>
        <mxCell id="52K3dLHCDRgLTuiudJ5l-26" value="更新lambda，并打印一次信息" style="whiteSpace=wrap;html=1;strokeWidth=2;" vertex="1" parent="1">
          <mxGeometry x="580" y="630" width="120" height="60" as="geometry" />
        </mxCell>
        <mxCell id="52K3dLHCDRgLTuiudJ5l-38" value="" style="edgeStyle=orthogonalEdgeStyle;rounded=0;orthogonalLoop=1;jettySize=auto;html=1;" edge="1" parent="1" source="52K3dLHCDRgLTuiudJ5l-33" target="52K3dLHCDRgLTuiudJ5l-37">
          <mxGeometry relative="1" as="geometry" />
        </mxCell>
        <mxCell id="52K3dLHCDRgLTuiudJ5l-39" value="True" style="edgeLabel;html=1;align=center;verticalAlign=middle;resizable=0;points=[];" vertex="1" connectable="0" parent="52K3dLHCDRgLTuiudJ5l-38">
          <mxGeometry x="-0.3429" relative="1" as="geometry">
            <mxPoint as="offset" />
          </mxGeometry>
        </mxCell>
        <mxCell id="52K3dLHCDRgLTuiudJ5l-45" style="edgeStyle=orthogonalEdgeStyle;rounded=0;orthogonalLoop=1;jettySize=auto;html=1;exitX=0;exitY=0.5;exitDx=0;exitDy=0;entryX=0;entryY=0.5;entryDx=0;entryDy=0;" edge="1" parent="1" source="52K3dLHCDRgLTuiudJ5l-33" target="52K3dLHCDRgLTuiudJ5l-15">
          <mxGeometry relative="1" as="geometry">
            <mxPoint x="230" y="250" as="targetPoint" />
            <Array as="points">
              <mxPoint x="210" y="790" />
              <mxPoint x="210" y="250" />
            </Array>
          </mxGeometry>
        </mxCell>
        <mxCell id="52K3dLHCDRgLTuiudJ5l-47" value="False" style="edgeLabel;html=1;align=center;verticalAlign=middle;resizable=0;points=[];" vertex="1" connectable="0" parent="52K3dLHCDRgLTuiudJ5l-45">
          <mxGeometry x="-0.8675" y="5" relative="1" as="geometry">
            <mxPoint x="-7" y="-5" as="offset" />
          </mxGeometry>
        </mxCell>
        <mxCell id="52K3dLHCDRgLTuiudJ5l-33" value="残差小于10^-4（收敛）或者残差大于10^10（发散）" style="rhombus;whiteSpace=wrap;html=1;strokeWidth=2;" vertex="1" parent="1">
          <mxGeometry x="341" y="750" width="146" height="80" as="geometry" />
        </mxCell>
        <mxCell id="52K3dLHCDRgLTuiudJ5l-41" value="" style="edgeStyle=orthogonalEdgeStyle;rounded=0;orthogonalLoop=1;jettySize=auto;html=1;" edge="1" parent="1" source="52K3dLHCDRgLTuiudJ5l-37" target="52K3dLHCDRgLTuiudJ5l-40">
          <mxGeometry relative="1" as="geometry" />
        </mxCell>
        <mxCell id="52K3dLHCDRgLTuiudJ5l-42" value="True" style="edgeLabel;html=1;align=center;verticalAlign=middle;resizable=0;points=[];" vertex="1" connectable="0" parent="52K3dLHCDRgLTuiudJ5l-41">
          <mxGeometry x="-0.35" y="-1" relative="1" as="geometry">
            <mxPoint as="offset" />
          </mxGeometry>
        </mxCell>
        <mxCell id="52K3dLHCDRgLTuiudJ5l-48" style="edgeStyle=orthogonalEdgeStyle;rounded=0;orthogonalLoop=1;jettySize=auto;html=1;exitX=0;exitY=0.5;exitDx=0;exitDy=0;entryX=0;entryY=0.5;entryDx=0;entryDy=0;" edge="1" parent="1" source="52K3dLHCDRgLTuiudJ5l-37" target="52K3dLHCDRgLTuiudJ5l-15">
          <mxGeometry relative="1" as="geometry">
            <Array as="points">
              <mxPoint x="210" y="920" />
              <mxPoint x="210" y="250" />
            </Array>
          </mxGeometry>
        </mxCell>
        <mxCell id="52K3dLHCDRgLTuiudJ5l-49" value="False" style="edgeLabel;html=1;align=center;verticalAlign=middle;resizable=0;points=[];" vertex="1" connectable="0" parent="52K3dLHCDRgLTuiudJ5l-48">
          <mxGeometry x="-0.8876" relative="1" as="geometry">
            <mxPoint as="offset" />
          </mxGeometry>
        </mxCell>
        <mxCell id="52K3dLHCDRgLTuiudJ5l-37" value="迭代步数达到1000步" style="rhombus;whiteSpace=wrap;html=1;strokeWidth=2;" vertex="1" parent="1">
          <mxGeometry x="339" y="880" width="150" height="80" as="geometry" />
        </mxCell>
        <mxCell id="52K3dLHCDRgLTuiudJ5l-40" value="结束" style="strokeWidth=2;html=1;shape=mxgraph.flowchart.terminator;whiteSpace=wrap;" vertex="1" parent="1">
          <mxGeometry x="364" y="1010" width="100" height="60" as="geometry" />
        </mxCell>
      </root>
    </mxGraphModel>
  </diagram>
</mxfile>
